# xmcd
#
# Track frame offsets:
#	150
#	11896
#	23960
#	33164
#	54310
#	84975
#	99095
#	112581
#	129950
#	150722
#	173331
#
# Disc length: 2662 seconds
#
# Revision: 0
# Processed by: cddbd v1.4PL0 Copyright (c) Steve Scherf et al.
# Submitted via: EasyCDDAExtractor 4.6.9.1
#
DISCID=690a640b
DTITLE=Cletus and the Barnburners - sdrawkcaB Bluegrass
DYEAR=2002
DGENRE=Bluegrass
TTITLE0=Hot Dog
TTITLE1=The Milky Whey
TTITLE2=Love Please Come Home
TTITLE3=McKinley's Blues
TTITLE4=Uncle Inus
TTITLE5=Travelin' Song
TTITLE6=Steamboat Whistle Blues
TTITLE7=Big River
TTITLE8=Knockin' At My Door
TTITLE9=Down Where The River Bends
TTITLE10=The Mrs.
EXTD=Ben Smith, Fiddle\nMichael Penque, Guitar\nTom Eaton, Mandolin\nPhil Wein
EXTD=robe, Bass\nNick Aives, Banjo
EXTT0=
EXTT1=
EXTT2=
EXTT3=
EXTT4=
EXTT5=
EXTT6=
EXTT7=
EXTT8=
EXTT9=
EXTT10=
PLAYORDER=
